<svg version="1.1" id="Layer_1" xmlns="http://www.w3.org/2000/svg" xmlns:xlink="http://www.w3.org/1999/xlink" x="0px" y="0px" viewBox="0 0 500 500" style="width: 188px;" xml:space="preserve" data-imageid="career-1-75" imageName="Career 1" class="illustrations_image">
<style type="text/css">
	.st0_career-1-75{fill:#093F68;}
	.st1_career-1-75{fill:#FFC9B0;}
	.st2_career-1-75{fill:#F56132;}
	.st3_career-1-75{fill:#68E1FD;}
	.st4_career-1-75{fill:#FFFFFF;}
	.st5_career-1-75{fill:#725858;}
	.st6_career-1-75{fill:none;}
	.st7_career-1-75{fill:#FFBC0E;}
</style>
<path id="steps_career-1-75" class="st0_career-1-75" d="M201.5,439.1H73.5c-1.2,0-2.1-0.9-2.1-2.1c0-1.2,0.9-2.1,2.1-2.1c0,0,0,0,0,0h126v-44.7&#10;&#9;c0-1.2,0.9-2.1,2.1-2.1h76.9v-42c0-1.2,0.9-2.1,2.1-2.1h68.1v-46.3c0-1.2,0.9-2.1,2.1-2.1H472c1.2,0.1,2,1.1,2,2.2&#10;&#9;c-0.1,1-0.9,1.9-2,2H352.8v46.3c0,1.1-0.9,2.1-2.1,2.1c0,0,0,0,0,0h-68.1v42c0,1.2-0.9,2.1-2.1,2.1h-76.9V437&#10;&#9;C203.6,438.2,202.7,439.1,201.5,439.1C201.6,439.1,201.5,439.1,201.5,439.1z"/>
<g id="character_career-1-75">
	<path class="st1_career-1-75" d="M254.7,209.5l7.7-8.9c0,0-1-6.9,0.4-8.9s5.7-4.6,6.6-4.2s1.5,2.8,1.5,2.8s5.5-5.1,6.8-3.6s6,14,2.8,19.4&#10;&#9;&#9;S260.5,225,260.5,225L254.7,209.5z"/>
	<path class="st0_career-1-75" d="M260.5,227.1c-0.2,0-0.4,0-0.5-0.1c-0.6-0.2-1.2-0.7-1.4-1.3l-5.8-15.5c-0.3-0.7-0.1-1.5,0.4-2.1l7.1-8.1&#10;&#9;&#9;c-0.3-2.7-0.6-7.3,0.9-9.4c1.2-1.8,6.6-6.2,9.2-4.9c0.5,0.3,1,0.7,1.4,1.2c1.8-1.4,3.9-2.6,5.5-2.5c0.8,0,1.6,0.4,2.1,1&#10;&#9;&#9;c1.6,1.8,6.9,15.4,3,21.9c-3.3,5.6-18.6,18-20.4,19.4C261.5,226.9,261,227.1,260.5,227.1z M257.1,210l4.4,11.6&#10;&#9;&#9;c5.5-4.6,15-12.8,17.2-16.4c2.3-3.9-0.8-13.5-2.2-16.3c-1.5,0.9-2.9,1.9-4.2,3.1c-0.5,0.5-1.3,0.7-2,0.5c-0.7-0.2-1.3-0.8-1.4-1.5&#10;&#9;&#9;c-0.1-0.3-0.2-0.6-0.3-0.9c-1.5,0.7-2.9,1.7-4,3c-0.5,0.8-0.5,4.3,0,7.4c0.1,0.6-0.1,1.2-0.5,1.6L257.1,210z"/>
	<path class="st2_career-1-75" d="M31,306.8l68.5,9.3c1.7,0.2,2.9,1.8,2.7,3.5L96,364.7c-0.2,1.7-1.8,2.9-3.5,2.7L24,358.1&#10;&#9;&#9;c-1.7-0.2-2.9-1.8-2.7-3.5l6.1-45.1C27.6,307.7,29.2,306.5,31,306.8z"/>
	<path class="st0_career-1-75" d="M89.9,369.1c-0.4,0-0.8,0-1.2-0.1l-61.6-8.4c-4.8-0.6-8.1-5-7.4-9.8l5.2-38.3c0.7-4.7,5-8.1,9.8-7.4l61.6,8.4&#10;&#9;&#9;c4.7,0.7,8.1,5,7.4,9.8l-5.2,38.3C97.9,365.9,94.3,369.1,89.9,369.1L89.9,369.1z M89.3,364.9c2.5,0.3,4.7-1.4,5.1-3.9c0,0,0,0,0,0&#10;&#9;&#9;l5.2-38.3c0.2-1.2-0.2-2.4-0.9-3.3c-0.7-1-1.8-1.6-3-1.7l-61.6-8.4c-2.5-0.3-4.7,1.4-5.1,3.8c0,0,0,0,0,0l-5.2,38.3&#10;&#9;&#9;c-0.3,2.5,1.4,4.7,3.9,5.1L89.3,364.9z"/>
	<path class="st0_career-1-75" d="M81.4,315.7c-0.1,0-0.2,0-0.3,0l-29.5-4c-0.5-0.1-1-0.4-1.4-0.8c-0.3-0.4-0.5-1-0.4-1.5l0.9-6.5&#10;&#9;&#9;c0.6-4.6,4.8-7.8,9.4-7.1l17.1,2.3c4.6,0.6,7.8,4.8,7.1,9.4l-0.9,6.5C83.3,314.9,82.4,315.7,81.4,315.7z M54.2,307.8l25.4,3.4&#10;&#9;&#9;l0.6-4.4c0.3-2.3-1.3-4.4-3.6-4.7c0,0,0,0,0,0l-17.1-2.3c-2.3-0.3-4.4,1.3-4.7,3.5L54.2,307.8z"/>
	<path class="st2_career-1-75" d="M31,306.8l68.5,9.3c1.7,0.2,2.9,1.8,2.7,3.5l-1.9,14.2c-0.4,2.8-3,4.8-5.8,4.4l-64.5-8.7&#10;&#9;&#9;c-2.8-0.4-4.8-3-4.4-5.8l1.9-14.2C27.7,307.7,29.3,306.5,31,306.8L31,306.8z"/>
	<path class="st0_career-1-75" d="M90.3,339.6c-0.6,0-1.2,0-1.8-0.1l-53.3-7.2c-7-1-11.9-7.4-11-14.5l0.7-5.2c0.7-4.7,5-8.1,9.8-7.4l61.6,8.4&#10;&#9;&#9;c4.7,0.6,8.1,5,7.4,9.8l-0.7,5.2C102.2,334.8,96.7,339.6,90.3,339.6L90.3,339.6z M33.5,309.3c-2.3,0-4.2,1.7-4.5,3.9l-0.7,5.2&#10;&#9;&#9;c-0.6,4.7,2.7,9.1,7.4,9.8l53.4,7.2l0,0c4.8,0.6,9.1-2.7,9.8-7.4c0,0,0,0,0,0l0.7-5.2c0.2-1.2-0.2-2.4-0.9-3.3&#10;&#9;&#9;c-0.7-1-1.8-1.6-3-1.7l-61.6-8.4C33.9,309.3,33.7,309.3,33.5,309.3z"/>
	<path class="st0_career-1-75" d="M61.6,340.1c-0.1,0-0.2,0-0.3,0c-1.1-0.1-1.9-1.2-1.8-2.3c0,0,0,0,0,0l1.2-8.5c0.1-1.1,1.1-2,2.3-1.9&#10;&#9;&#9;c1.1,0.1,2,1.1,1.9,2.3c0,0,0,0.1,0,0.1l-1.2,8.5C63.5,339.4,62.6,340.1,61.6,340.1z"/>
	<path class="st1_career-1-75" d="M82.8,280c0,0-2.6,8.6-2.3,10.4s4.1,10.5,1.2,10.1c-1.6-0.2-3.2-0.7-4.7-1.5c0,0-0.5,10.8-5.4,11.1&#10;&#9;&#9;s-14.8-4.7-14.9-8.9s1.9-13.8,5.5-14.9s7.9-15.4,7.9-15.4L82.8,280z"/>
	<path class="st0_career-1-75" d="M71.1,312.3c-4.1,0-10.2-2.5-13.7-5.7c-1.8-1.7-2.8-3.4-2.9-5.2c-0.1-4.2,1.8-15.4,7-16.9&#10;&#9;&#9;c1.4-0.6,4.4-7.1,6.5-14c0.3-1.1,1.5-1.7,2.6-1.4c0.2,0.1,0.4,0.2,0.6,0.3l12.8,8.9c0.7,0.5,1.1,1.5,0.8,2.3&#10;&#9;&#9;c-1.1,3.8-2.3,8.5-2.2,9.5c0,0.2,0.3,1.1,0.6,1.9c1.6,4.6,2.5,7.8,1,9.6c-0.7,0.8-1.7,1.2-2.7,1c-0.9-0.1-1.8-0.3-2.6-0.5&#10;&#9;&#9;c-0.6,3.9-2.2,10-7.1,10.3L71.1,312.3z M71.2,274.5c-1.7,5.2-4.9,13-8.4,14c-1.8,0.5-4.2,8-4,12.8c0.2,0.9,0.8,1.7,1.5,2.2&#10;&#9;&#9;c2.8,2.6,8.3,4.8,11.2,4.6c1.9-0.1,3.3-5.5,3.4-9.2c0-1.1,1-2,2.2-2c0.3,0,0.6,0.1,0.9,0.2c0.9,0.4,1.8,0.7,2.7,0.9&#10;&#9;&#9;c-0.4-1.7-0.9-3.3-1.4-4.9c-0.3-0.8-0.5-1.7-0.8-2.5c-0.3-1.7,0.9-6.4,1.9-9.9L71.2,274.5z"/>
	<path class="st0_career-1-75" d="M254,368.7l-26.8,3.3c-3.1-35.7-8.3-50.6-13.4-56.5c-4.1-4.7-53.4-19.7-53.4-19.7l13-32.4&#10;&#9;&#9;c12.7,3.4,53.6,23.7,65,37C249.3,312.9,252.2,353.1,254,368.7z"/>
	<path class="st0_career-1-75" d="M227.2,374c-0.5,0-0.9-0.2-1.3-0.5c-0.4-0.4-0.7-0.9-0.8-1.4c-2.6-29.9-7-48.5-12.9-55.4&#10;&#9;&#9;c-2.3-2.7-28.5-11.8-52.5-19.1c-0.6-0.2-1-0.6-1.3-1.1c-0.3-0.5-0.3-1.1-0.1-1.7l13-32.4c0.4-1,1.5-1.5,2.5-1.2&#10;&#9;&#9;c13.7,3.7,54.6,24.3,66,37.6c9.9,11.5,13.3,43.5,15.3,62.6c0.3,2.6,0.5,4.9,0.7,6.9c0.1,1.1-0.7,2.2-1.8,2.3l-26.6,3.2L227.2,374z&#10;&#9;&#9; M163.2,294.4c11.8,3.6,48.3,15.1,52.2,19.7c6.4,7.5,10.9,25.7,13.7,55.6l22.5-2.8c-0.2-1.5-0.3-3.1-0.5-4.9&#10;&#9;&#9;c-1.8-17.4-5.2-49.8-14.3-60.3c-10.7-12.4-48.4-31.3-62.2-35.8L163.2,294.4z"/>
	<path class="st3_career-1-75 targetColor" d="M227.2,372v18.3l44.9-8.9c0.5-0.1,0.8-0.6,0.7-1.1c-0.1-0.3-0.2-0.5-0.5-0.6l-20.4-13.5L227.2,372z" style="fill: rgb(104, 225, 253);"/>
	<path class="st0_career-1-75" d="M227.2,392.4c-1.1,0-2.1-0.9-2.1-2.1V372c0-1,0.7-1.8,1.6-2l24.7-5.8c0.6-0.1,1.2,0,1.6,0.3l20.3,13.5&#10;&#9;&#9;c1.5,0.8,2,2.6,1.2,4.1c-0.4,0.8-1.2,1.3-2,1.5l-44.9,8.9C227.5,392.4,227.4,392.4,227.2,392.4z M229.3,373.6v14.1l39.6-7.8&#10;&#9;&#9;l-17.4-11.5L229.3,373.6z"/>
	<path class="st3_career-1-75 targetColor" d="M267,219.5c0,0-23.1,41.9-40.5,37.4c-9.8-2.6-20.7-12.8-28.4-21.2l3,36.8l-68.1,6.2l-4.9-54&#10;&#9;&#9;c-13.4,7.4-31.4,24.9-43,59.1l-22.2-7.5c17-50.2,44.6-70.4,66.3-77.8c0,0,59.1-8.7,69.8-2.9s23.1,35.2,29.4,33.6s28-24.9,28-24.9&#10;&#9;&#9;L267,219.5z" style="fill: rgb(104, 225, 253);"/>
	<path class="st0_career-1-75" d="M85.1,285.7c-0.2,0-0.5,0-0.7-0.1l-22.2-7.5c-1.1-0.4-1.7-1.6-1.3-2.6c0,0,0,0,0,0&#10;&#9;&#9;c17.7-52.3,46.5-71.9,67.6-79.1c0.1,0,0.2-0.1,0.4-0.1c6.1-0.9,60.1-8.7,71.1-2.7c5.7,3.1,11.4,11.6,16.9,19.9&#10;&#9;&#9;c3.4,5.1,9.1,13.8,11.1,13.6c4.2-1,18.8-15.5,27-24.3c0.4-0.5,1-0.7,1.7-0.7c0.6,0,1.2,0.4,1.6,0.9l10.6,15.4&#10;&#9;&#9;c0.4,0.7,0.5,1.5,0.1,2.2c-4.1,7.2-8.8,14.2-13.9,20.7C243.8,255,234.1,261,226,258.9c-8.6-2.2-18-10.1-25.3-17.5l2.5,30.8&#10;&#9;&#9;c0.1,1.1-0.8,2.1-1.9,2.2l-68.1,6.2c-1.1,0.1-2.2-0.7-2.3-1.9l-4.7-50.7c-9.5,6-27.4,21.4-39.2,56.3c-0.2,0.5-0.5,0.9-1,1.2&#10;&#9;&#9;C85.8,285.6,85.4,285.7,85.1,285.7z M65.5,274.8l18.3,6.2c13.6-38.6,34.7-53.6,43.3-58.3c1-0.6,2.3-0.2,2.8,0.8&#10;&#9;&#9;c0.1,0.2,0.2,0.5,0.2,0.8l4.7,51.9l64-5.8l-2.8-34.7c-0.1-1.2,0.8-2.2,1.9-2.2c0.6-0.1,1.3,0.2,1.7,0.7c7.3,8.1,18,18.2,27.3,20.6&#10;&#9;&#9;c12.6,3.3,30.8-23.3,37.5-35.2l-8.4-12.2c-6,6.4-21.4,22.2-27.3,23.7c-4.6,1.1-9.2-5.8-15.5-15.3c-5-7.5-10.6-15.9-15.4-18.5&#10;&#9;&#9;c-8.3-4.5-51.9,0.7-68.3,3.1C109.8,207.2,82.7,225.7,65.5,274.8z"/>
	<path class="st0_career-1-75" d="M107.2,397.9c0,0,21.9-33.1,27.8-50.5s1-68.9,1-68.9h31.7c0,0,9.1,41.4-2.9,71.9s-36.8,58-36.8,58L107.2,397.9&#10;&#9;&#9;z"/>
	<path class="st0_career-1-75" d="M128.1,410.4c-0.3,0-0.6-0.1-0.9-0.2l-20.9-10.4c-1-0.5-1.4-1.8-0.9-2.8c0-0.1,0.1-0.1,0.1-0.2&#10;&#9;&#9;c0.2-0.3,21.8-33.1,27.6-50c5.7-16.8,0.9-67.5,0.9-68c-0.1-0.6,0.1-1.2,0.5-1.6c0.4-0.4,1-0.7,1.5-0.7h31.7c1,0,1.8,0.7,2,1.6&#10;&#9;&#9;c0.4,1.7,9.1,42.4-3,73.1c-12,30.5-36.9,58.3-37.1,58.6C129.2,410.2,128.6,410.4,128.1,410.4z M110.2,397l17.3,8.7&#10;&#9;&#9;c4.8-5.6,25-29.8,35.3-56.1s4.6-61.1,3.1-69.1h-27.7c0.9,10.3,4.1,51.8-1.3,67.5C131.8,363.2,115.1,389.6,110.2,397z"/>
	<path class="st3_career-1-75 targetColor" d="M107.2,397.9l-10.7,17.2l36.7,21.9c0.7,0.3,1.4,0,1.7-0.7c0.2-0.4,0.1-0.9-0.1-1.2l-6.7-26.7L107.2,397.9z" style="fill: rgb(104, 225, 253);"/>
	<path class="st0_career-1-75" d="M133.8,439.1c-0.5,0-0.9-0.1-1.3-0.3c-0.1,0-0.2-0.1-0.3-0.1l-36.7-21.9c-0.5-0.3-0.9-0.7-1-1.3&#10;&#9;&#9;c-0.1-0.5,0-1.1,0.3-1.6l10.7-17.2c0.6-0.9,1.7-1.2,2.7-0.8l20.9,10.4c0.5,0.3,0.9,0.8,1.1,1.4l6.6,26.4c0.8,1.7,0.2,3.7-1.5,4.5&#10;&#9;&#9;C134.8,439,134.3,439.1,133.8,439.1L133.8,439.1z M99.4,414.4l32.9,19.6l-6.1-24.2l-18.3-9.2L99.4,414.4z"/>
	<polygon class="st4_career-1-75" points="178.7,193.5 171.1,259.6 147.7,195.9 &#9;"/>
	<path class="st0_career-1-75" d="M171.1,261.7c-0.9,0-1.7-0.5-2-1.4l-23.4-63.6c-0.4-1.1,0.1-2.3,1.2-2.7c0.2-0.1,0.4-0.1,0.6-0.1l31-2.5&#10;&#9;&#9;c1.2-0.1,2.2,0.8,2.3,1.9c0,0.1,0,0.3,0,0.4l-7.6,66.1c-0.1,1-0.9,1.7-1.8,1.8L171.1,261.7z M150.6,197.8l19.4,52.8l6.3-54.9&#10;&#9;&#9;L150.6,197.8z"/>
	<path class="st1_career-1-75" d="M156.3,186.8l14.2-1.3l0,0l1,11.3c0.1,1.6-1,3-2.6,3.1l-8.4,0.8c-1.6,0.1-3-1-3.1-2.6L156.3,186.8L156.3,186.8&#10;&#9;&#9;z"/>
	<path class="st0_career-1-75" d="M163.1,202.5c-4.2,0-7.7-3.2-8.1-7.4l-0.7-8.2c-0.1-1.1,0.7-2.2,1.9-2.3l14.2-1.3c0.6,0,1.1,0.1,1.5,0.5&#10;&#9;&#9;c0.4,0.4,0.7,0.9,0.7,1.4l0.7,8.2c0.4,4.5-2.9,8.4-7.4,8.8c0,0,0,0,0,0l0,0l-2.1,0.2C163.6,202.5,163.3,202.5,163.1,202.5z&#10;&#9;&#9; M165.8,200.2L165.8,200.2z M158.6,188.7l0.6,6.1c0.1,1,0.6,2,1.4,2.7c0.8,0.7,1.8,1,2.9,0.9l2.1-0.2c2.2-0.2,3.8-2.1,3.6-4.3&#10;&#9;&#9;l-0.6-6.1L158.6,188.7z"/>
	<path class="st5_career-1-75" d="M110.1,153.8c1.4-0.2-2.6-6-2.8-6.4c-4.2-7.6-5.6-17.2-5.7-25.8c-0.1-8.9,1.6-20.4,11.4-23.3&#10;&#9;&#9;c-2.8,0.8-5.8-0.2-8.1-2c-2.2-1.9-4.1-4.1-5.6-6.5c4.7,0.9,9.6-0.8,13.5-3.7c3.5-2.6,4.9-5.8,7.4-9.1c2.2-2.9,5.7-5.4,8.8-7.4&#10;&#9;&#9;c12.8-8.1,29.1-7.4,44.1-5.3c6.4,0.9,13,2.1,18.4,5.6s9.4,10,8,16.4c7.5,0.2,11.6,1,13.1,9.3c2.4,12.8-2.2,47.8-2.2,47.8l-8.9-0.7&#10;&#9;&#9;L110.1,153.8z"/>
	<path class="st0_career-1-75" d="M110.1,155.9c-1.1,0-2-0.8-2.1-1.8c0-0.3,0-0.7,0.1-1c-0.7-1.4-1.5-2.7-2.3-4c-0.2-0.3-0.3-0.6-0.4-0.6&#10;&#9;&#9;c-3.8-6.9-5.8-15.9-6-26.8c-0.1-10.3,2.2-17.7,6.9-22c-0.9-0.4-1.8-1-2.7-1.6c-2.4-2-4.4-4.4-6-7c-0.7-0.9-0.4-2.2,0.5-2.9&#10;&#9;&#9;c0.5-0.3,1-0.4,1.6-0.3c3.8,0.7,8.1-0.5,11.8-3.3c2-1.6,3.7-3.6,5-5.8c0.6-1,1.3-2,2-2.9c2.6-3.4,6.6-6.1,9.3-7.9&#10;&#9;&#9;c13.7-8.6,30.7-7.7,45.5-5.6c6.6,0.9,13.4,2.1,19.2,5.9c5,3.3,9.5,9.3,9.2,16.1c6.5,0.3,11.2,2,12.8,10.9c2.4,13-2.1,47-2.2,48.4&#10;&#9;&#9;c-0.1,1.1-1.1,1.9-2.2,1.8l-8.7-0.7l-91,11.1l0,0L110.1,155.9z M109.9,151.8L109.9,151.8z M113.6,100.3c-8.4,2.5-10,12.9-9.9,21.3&#10;&#9;&#9;c0.1,10.2,2,18.6,5.4,24.9l0.2,0.4c1,1.5,1.9,3.1,2.7,4.7l89.1-10.9c0.1,0,0.3,0,0.4,0l6.9,0.6c0.9-7.5,4-34.5,2-45.2&#10;&#9;&#9;c-1.2-6.8-3.9-7.4-11.1-7.6c-1.1,0-2.1-1-2-2.1c0-0.1,0-0.3,0-0.4c1.2-5.7-2.9-11.4-7.1-14.2c-5.1-3.3-11.4-4.4-17.5-5.3&#10;&#9;&#9;c-14.1-2-30.1-2.9-42.7,5c-2.5,1.6-6,4-8.2,6.9c-0.7,0.9-1.3,1.8-1.9,2.7c-1.6,2.6-3.6,4.9-5.9,6.8c-3,2.3-6.7,3.8-10.5,4.2&#10;&#9;&#9;c0.8,1,1.7,1.9,2.7,2.6c1.7,1.5,4,2.1,6.2,1.6l0,0c1.1-0.4,2.3,0.2,2.7,1.2c0.4,1.1-0.2,2.3-1.2,2.7&#10;&#9;&#9;C113.7,100.2,113.7,100.3,113.6,100.3L113.6,100.3z"/>
	
		<ellipse transform="matrix(0.9959 -9.045877e-02 9.045877e-02 0.9959 -13.3479 11.4359)" class="st1_career-1-75" cx="119.5" cy="153" rx="13.8" ry="11.9"/>
	<path class="st0_career-1-75" d="M119.1,167c-3.5,0-6.9-1-9.8-3c-5.9-3.9-7.5-11.9-3.6-17.9c0.5-0.8,1.1-1.5,1.8-2.1c6-5.9,15.3-6.7,22.2-2&#10;&#9;&#9;c3.2,2.2,5.3,5.7,5.7,9.5c0.7,7.7-5.9,14.6-14.6,15.4C120.2,167,119.7,167,119.1,167z M119.9,143.1c-0.4,0-0.9,0-1.3,0.1&#10;&#9;&#9;c-3.1,0.2-6,1.6-8.1,3.7c-3.5,3.3-3.6,8.8-0.3,12.3c0.5,0.5,1,0.9,1.6,1.3c2.5,1.7,5.6,2.5,8.7,2.2c6.4-0.6,11.3-5.5,10.8-10.9&#10;&#9;&#9;c-0.3-2.6-1.7-5-3.9-6.5C125.1,143.9,122.5,143.1,119.9,143.1L119.9,143.1z"/>
	
		<ellipse transform="matrix(0.9959 -9.045877e-02 9.045877e-02 0.9959 -12.359 18.6753)" class="st1_career-1-75" cx="199.8" cy="145.7" rx="13.8" ry="11.9"/>
	<path class="st0_career-1-75" d="M199.5,159.7c-3.5,0-6.9-1-9.8-3.1c-3.2-2.2-5.3-5.7-5.7-9.6c-0.7-7.7,5.9-14.6,14.6-15.4&#10;&#9;&#9;c4.1-0.4,8.1,0.7,11.5,3c3.2,2.2,5.3,5.7,5.7,9.6l0,0c0.7,7.7-5.9,14.6-14.6,15.4C200.6,159.7,200,159.7,199.5,159.7z M200.3,135.8&#10;&#9;&#9;c-0.4,0-0.9,0-1.3,0.1c-6.4,0.6-11.3,5.5-10.8,10.9c0.3,2.6,1.7,5,3.9,6.5c2.5,1.8,5.6,2.5,8.7,2.2c6.4-0.6,11.3-5.5,10.8-10.9l0,0&#10;&#9;&#9;c-0.3-2.6-1.7-5-3.9-6.5C205.5,136.6,202.9,135.8,200.3,135.8L200.3,135.8z"/>
	<path class="st1_career-1-75" d="M163.6,188c-23,2.1-43.3-14.8-45.3-37.8c0,0,0,0,0,0c-0.6-6.4-4-26.8-2.3-30.2c1.9-4,6.1-6.6,9.9-8.6&#10;&#9;&#9;s7.7-3.6,11.8-3.3c0.4,0,0.7,0.1,1,0.4c0.4,0.4,0.1,1.1-0.1,1.6c-1.9,3.9-4.4,7.5-7.5,10.6c6.6-0.1,13-2,18.6-5.3&#10;&#9;&#9;c5.6-3.3,10.8-7.3,15.5-11.9c0.8,7.9-2.5,15.6-8.8,20.5c10.3-0.1,20.1-4.8,26.6-12.8c1.6-2,3.1-4.3,5.4-5.4&#10;&#9;&#9;c11.1-5.4,10.8,13,11.3,18.7l1.7,18.2C203.5,165.6,186.6,185.9,163.6,188C163.6,188,163.6,188,163.6,188z"/>
	<path class="st0_career-1-75" d="M159.8,190.3c-22.6,0-41.5-17.3-43.6-39.9c-0.2-1.6-0.5-4.2-0.9-7.2c-1.9-14.2-2.6-21.5-1.3-24.1&#10;&#9;&#9;c2.3-4.7,7.3-7.7,10.8-9.5c3.7-1.9,8.2-3.9,13-3.5c0.9,0,1.8,0.4,2.4,1.1c0.5,0.6,1.2,1.8,0.2,3.9c-1.2,2.5-2.7,4.9-4.4,7.2&#10;&#9;&#9;c4.5-0.8,8.7-2.4,12.7-4.6c5.5-3.3,10.6-7.2,15.1-11.6c0.8-0.8,2.2-0.7,3,0.1c0.3,0.3,0.5,0.7,0.5,1.2c0.6,6.4-1.2,12.9-5.2,18&#10;&#9;&#9;c7.6-1.5,14.4-5.5,19.3-11.5l0.8-1c1.4-1.8,3-3.8,5.4-5c3.1-1.5,5.8-1.6,8.1-0.3c5.2,3,5.7,12.3,6.1,18.5c0.1,0.9,0.1,1.6,0.2,2.2&#10;&#9;&#9;l1.6,18.2c2.2,24.1-15.6,45.4-39.7,47.6l0,0C162.4,190.2,161.1,190.3,159.8,190.3z M163.6,188L163.6,188z M136.1,110.2&#10;&#9;&#9;c-3.3,0.2-6.6,1.6-9.4,3.1c-3,1.6-7.2,4.1-9,7.7c-0.9,2.1,0.8,15.3,1.7,21.7c0.4,3.1,0.8,5.7,0.9,7.4c2,21.8,21.3,37.9,43.1,35.9&#10;&#9;&#9;l0,0c21.8-2,37.9-21.3,35.9-43.1c0,0,0,0,0,0l-1.7-18.2c-0.1-0.7-0.1-1.5-0.2-2.4c-0.3-4.3-0.8-13.2-4.1-15.1&#10;&#9;&#9;c-0.4-0.2-1.5-0.9-4.1,0.4c-1.6,1-2.9,2.3-3.9,3.8l-0.8,1c-6.9,8.5-17.2,13.5-28.2,13.6c-0.9,0-1.7-0.6-2-1.4&#10;&#9;&#9;c-0.3-0.9,0-1.8,0.7-2.3c4.4-3.4,7.3-8.5,7.9-14.1c-3.8,3.4-8,6.4-12.4,9c-6.5,3.7-13.3,5.7-19.7,5.6c-0.8,0-1.6-0.5-1.9-1.3&#10;&#9;&#9;c-0.3-0.8-0.1-1.7,0.4-2.3C132.2,116.5,134.4,113.5,136.1,110.2z"/>
	<circle class="st0_career-1-75" cx="143.8" cy="141.8" r="3.9"/>
	<circle class="st0_career-1-75" cx="179.7" cy="138.5" r="3.9"/>
	<path class="st0_career-1-75" d="M162.1,158.2c-0.9,0-1.6,0-1.8-0.1c-1.2-0.1-2-1.1-1.9-2.3c0.1-1.2,1.1-2,2.3-1.9l0,0c1.6,0.1,3.1,0,4.7-0.2&#10;&#9;&#9;c-0.9-2.7-2.2-5.3-3.8-7.7c-0.7-0.9-0.5-2.2,0.5-2.9c0.9-0.7,2.2-0.5,2.9,0.5c0,0.1,0.1,0.1,0.1,0.2c2.5,3.9,5.3,9.1,4.4,11.8&#10;&#9;&#9;c-0.3,0.9-1,1.6-1.8,1.9C165.8,158,163.9,158.2,162.1,158.2z"/>
	<path class="st0_career-1-75" d="M151.8,132.2L151.8,132.2l-18.5-0.4c-2.3,0-4.1-2-4.1-4.3c0-2.3,2-4.1,4.3-4.1l18.4,0.4c2.3,0,4.2,1.9,4.1,4.2&#10;&#9;&#9;S154.1,132.2,151.8,132.2L151.8,132.2L151.8,132.2z"/>
	<path class="st0_career-1-75" d="M172.8,130.2c-2.3,0-4.2-1.8-4.2-4.1c0-2.2,1.6-4,3.8-4.2l18.3-2c2.3-0.3,4.4,1.4,4.6,3.7s-1.4,4.4-3.7,4.6&#10;&#9;&#9;c0,0,0,0-0.1,0l-18.3,2C173.1,130.2,173,130.2,172.8,130.2z"/>
	<path class="st0_career-1-75" d="M137.1,154.2c-1.5,0-2.9-0.5-4-1.4c-1.3-1.1-2.1-2.6-2.2-4.2l-1-11.5c0-0.6,0.1-1.1,0.5-1.5&#10;&#9;&#9;c0.4-0.4,0.9-0.7,1.4-0.7l26.7-2.4c1.1-0.1,2.2,0.7,2.3,1.9c0,0,0,0,0,0l1,11.5c0.3,3.4-2.2,6.4-5.6,6.7c0,0,0,0,0,0l-18.5,1.7&#10;&#9;&#9;L137.1,154.2z M134.2,138.8l0.9,9.4c0.1,1.1,1,1.9,2.1,1.8c0,0,0,0,0.1,0l18.5-1.7l0,0c1.1-0.1,1.9-1,1.8-2.1c0,0,0,0,0-0.1&#10;&#9;&#9;l-0.9-9.4L134.2,138.8z"/>
	<path class="st0_career-1-75" d="M170.2,151.2c-3.2,0-5.9-2.5-6.2-5.7l-1-11.5c-0.1-1.1,0.7-2.2,1.9-2.3l26.7-2.4c1.2-0.1,2.2,0.8,2.3,1.9&#10;&#9;&#9;l1.1,11.5c0.3,3.4-2.2,6.4-5.6,6.8l0,0l-18.5,1.7C170.7,151.2,170.5,151.2,170.2,151.2z M189.1,147.4L189.1,147.4z M167.4,135.8&#10;&#9;&#9;l0.9,9.4c0.1,1.1,1,1.9,2.1,1.8c0,0,0,0,0.1,0l18.5-1.7c1.1-0.1,1.9-1,1.8-2.1c0,0,0,0,0-0.1l-0.9-9.4L167.4,135.8z"/>
	<path class="st0_career-1-75" d="M168.6,172.2c-5,0-13-1.4-22.1-8.1c-1-0.6-1.2-1.9-0.6-2.9c0.6-1,1.9-1.2,2.9-0.6c0,0,0.1,0.1,0.1,0.1&#10;&#9;&#9;c13.3,9.8,23.5,7,23.9,6.8c1.1-0.3,2.3,0.3,2.6,1.4c0.3,1.1-0.3,2.3-1.4,2.6C172.3,172,170.5,172.2,168.6,172.2z"/>
	<path class="st0_career-1-75" d="M114.2,145c-1.2,0-2.1-0.9-2.1-2.1c0-1.1,0.8-2,1.9-2.1l18.1-1.6c1.1-0.1,2.2,0.7,2.3,1.8&#10;&#9;&#9;c0.1,1.1-0.7,2.2-1.8,2.3c-0.1,0-0.1,0-0.2,0l-18.1,1.7H114.2z"/>
	<path class="st0_career-1-75" d="M192.3,137.9c-1.2,0-2.1-0.9-2.1-2.1c0-1.1,0.8-2,1.9-2.1l6.6-0.6c1.1-0.1,2.2,0.7,2.3,1.9&#10;&#9;&#9;c0.1,1.1-0.7,2.2-1.9,2.3c0,0,0,0,0,0l-6.6,0.6L192.3,137.9z"/>
	<path class="st2_career-1-75" d="M162,201.4l7.6-0.7c0.8-0.1,1.5,0.5,1.6,1.3l0.5,5.3c0.1,0.8-0.5,1.5-1.3,1.6l-7.6,0.7&#10;&#9;&#9;c-0.8,0.1-1.5-0.5-1.6-1.3l-0.5-5.3C160.6,202.2,161.2,201.5,162,201.4z"/>
	<path class="st0_career-1-75" d="M164.1,211.6c-2.7,0-4.9-2-5.1-4.7l-0.2-2.2c-0.3-2.8,1.8-5.3,4.7-5.6l4.4-0.4c2.8-0.3,5.3,1.8,5.6,4.7&#10;&#9;&#9;c0,0,0,0,0,0l0.2,2.2c0.3,2.8-1.8,5.3-4.7,5.6c0,0,0,0,0,0l-4.4,0.4L164.1,211.6z M168.3,202.9L168.3,202.9l-4.5,0.4&#10;&#9;&#9;c-0.5,0.1-0.9,0.5-0.9,1.1l0.2,2.2c0.1,0.5,0.5,0.9,1.1,0.9l4.4-0.4l0,0c0.3,0,0.5-0.1,0.7-0.4c0.2-0.2,0.2-0.5,0.2-0.7l-0.2-2.2&#10;&#9;&#9;C169.2,203.3,168.8,202.9,168.3,202.9L168.3,202.9z"/>
	<polygon class="st2_career-1-75" points="173.4,233.5 171.1,259.6 163.4,237 163.5,209.6 169.6,209.1 &#9;"/>
	<path class="st0_career-1-75" d="M171.1,261.7c-0.9,0-1.7-0.6-2-1.4l-7.8-22.6c-0.1-0.2-0.1-0.5-0.1-0.7l0.2-27.4c0-1.1,0.8-2,1.9-2.1l6-0.6&#10;&#9;&#9;c1.1-0.1,2.1,0.7,2.2,1.8l3.9,24.5c0,0.2,0,0.3,0,0.5l-2.3,26c-0.1,1-0.9,1.8-1.8,1.9L171.1,261.7z M165.4,236.7l4.5,13l1.4-16&#10;&#9;&#9;l-3.6-22.3l-2.2,0.2L165.4,236.7z"/>
	<line class="st6_career-1-75" x1="127.4" y1="224.6" x2="126.3" y2="212.8"/>
	<path class="st0_career-1-75" d="M127.4,226.7c-1.1,0-2-0.8-2.1-1.9l-1.1-11.8c-0.1-1.2,0.7-2.2,1.9-2.3c1.2-0.1,2.2,0.7,2.3,1.9l1.1,11.8&#10;&#9;&#9;c0.1,1.1-0.7,2.2-1.9,2.3L127.4,226.7z"/>
	<path class="st0_career-1-75" d="M268.3,209.2c-1.2,0-2.1-1-2.1-2.1c0-0.5,0.2-1,0.5-1.3c1-1.1,0.9-4.8,0.5-6.9c-0.2-1.1,0.6-2.2,1.8-2.4&#10;&#9;&#9;c0.8-0.1,1.6,0.2,2.1,0.9c0.6,1,1.4,1.9,2.3,2.7c-1.1-3-2.5-5.9-4.3-8.5c-0.6-1-0.4-2.3,0.6-2.9c1-0.6,2.3-0.4,2.9,0.6l0,0&#10;&#9;&#9;c5,7.6,6.3,12.5,3.9,14.6c-0.8,0.7-1.9,1-3,0.9c-0.7-0.1-1.3-0.4-1.9-0.8c-0.1,1.6-0.7,3.2-1.7,4.6&#10;&#9;&#9;C269.5,208.9,268.9,209.2,268.3,209.2z"/>
	<path class="st0_career-1-75" d="M186.5,109.1c-1.2,0-2.1-0.9-2.1-2c0-0.8,0.5-1.6,1.2-2c0.1,0,5.3-2.6,8.6-9.7c0.5-1.1,1.7-1.5,2.8-1&#10;&#9;&#9;s1.5,1.7,1,2.8c-4,8.6-10.3,11.6-10.6,11.8C187.1,109,186.8,109.1,186.5,109.1z"/>
</g>
<g id="flag_career-1-75">
	<path class="st0_career-1-75" d="M410.2,299.9c-1.2,0-2.1-0.9-2.1-2.1V92.1c0-1.2,0.9-2.1,2.1-2.1c1.2,0,2.1,0.9,2.1,2.1c0,0,0,0,0,0v205.7&#10;&#9;&#9;C412.3,298.9,411.3,299.9,410.2,299.9z"/>
	<polygon class="st7_career-1-75" points="478.3,153.8 410.2,153.8 410.2,98.8 &#9;"/>
	<path class="st0_career-1-75" d="M478.3,155.9h-68.1c-1.2,0-2.1-0.9-2.1-2.1v-55c0-1.2,0.9-2.1,2.1-2.1c0.5,0,0.9,0.2,1.3,0.5l68.1,55&#10;&#9;&#9;c0.9,0.7,1,2.1,0.3,3C479.5,155.6,478.9,155.9,478.3,155.9L478.3,155.9z M412.3,151.7h60.1l-60.1-48.6V151.7z"/>
</g>
</svg>